<svg width="100" height="100" viewBox="0 0 100 100" fill="none" xmlns="http://www.w3.org/2000/svg">
<path d="M57.3739 84.501C57.0758 85.1064 57.3174 85.8426 57.914 86.1451C58.5106 86.448 59.2362 86.2025 59.5343 85.5971L57.3739 84.501ZM42.2706 75.2451C41.4627 74.3343 41.4623 74.3348 41.4618 74.3348C41.4616 74.3353 41.4611 74.3358 41.4608 74.3358C41.4601 74.3368 41.4594 74.3373 41.4586 74.3377C41.4571 74.3392 41.4554 74.3407 41.4536 74.3426C41.45 74.3461 41.4457 74.35 41.4409 74.3544C41.4313 74.3637 41.4194 74.375 41.4055 74.3887C41.3776 74.4157 41.3415 74.4525 41.2992 74.4971C41.215 74.5868 41.1038 74.7127 40.9835 74.8701C40.7493 75.177 40.4488 75.6461 40.2709 76.2328C40.0881 76.8353 40.0309 77.5819 40.3268 78.3696C40.6197 79.15 41.2095 79.8402 42.0838 80.4314L43.4236 78.3922C42.8486 78.0029 42.6533 77.6819 42.584 77.4971C42.5175 77.3201 42.5207 77.1476 42.5795 76.9534C42.6431 76.7436 42.7654 76.5387 42.8935 76.3706C42.9544 76.2907 43.0092 76.2289 43.0458 76.1902C43.0639 76.1711 43.0768 76.1583 43.0829 76.152C43.086 76.149 43.0873 76.148 43.0867 76.1485C43.0864 76.149 43.0856 76.1495 43.0842 76.151C43.0835 76.1515 43.0827 76.152 43.0818 76.1529C43.0813 76.1534 43.0808 76.1539 43.0802 76.1544C43.08 76.1549 43.0796 76.1549 43.0794 76.1554C43.079 76.1554 43.0785 76.1559 42.2706 75.2451ZM42.0838 80.4314C43.1114 81.1265 44.5449 81.325 45.9053 81.3681C47.3181 81.4127 48.9159 81.2912 50.4396 81.1534C51.9947 81.0127 53.4604 80.8569 54.7217 80.8088C55.3473 80.7848 55.8879 80.7892 56.3338 80.8299C56.7928 80.8721 57.0763 80.9466 57.23 81.0176L58.2295 78.7863C57.7188 78.551 57.1266 78.4417 56.5507 78.3887C55.9614 78.3348 55.3072 78.3338 54.6309 78.3593C53.2879 78.4108 51.7193 78.577 50.2251 78.7118C48.6995 78.85 47.2324 78.9578 45.9805 78.9181C44.6764 78.877 43.8454 78.6775 43.4236 78.3922L42.0838 80.4314ZM57.23 81.0176C57.587 81.1824 57.742 81.3985 57.828 81.6402C57.9295 81.925 57.9527 82.3108 57.8913 82.7711C57.8314 83.2206 57.7019 83.6588 57.5807 83.9956C57.5208 84.1608 57.4657 84.2941 57.4271 84.3838C57.4077 84.4279 57.3928 84.4613 57.3831 84.4814C57.3783 84.4917 57.3754 84.4985 57.3734 84.5015C57.3729 84.5034 57.3725 84.5039 57.3725 84.5039C57.3725 84.5039 57.3725 84.5039 57.3729 84.5034C57.3729 84.5029 57.3729 84.5024 57.3734 84.5024C57.3734 84.502 57.3734 84.502 57.3734 84.5015C57.3739 84.5015 57.3739 84.501 58.4541 85.049C59.5343 85.5971 59.5348 85.5966 59.5348 85.5961L59.5353 85.5956C59.5357 85.5946 59.5357 85.5941 59.5362 85.5936C59.5372 85.5922 59.5377 85.5902 59.5386 85.5882C59.5406 85.5843 59.543 85.5794 59.5459 85.574C59.5512 85.5623 59.5585 85.5471 59.5676 85.5279C59.585 85.4902 59.6087 85.4377 59.6372 85.3726C59.6937 85.2427 59.7686 85.0603 59.8488 84.8387C60.0063 84.4015 60.1942 83.7828 60.285 83.099C60.3749 82.4255 60.3826 81.6015 60.0995 80.8064C59.8005 79.9681 59.201 79.2343 58.2295 78.7863L57.23 81.0176Z" fill="#F9F9F9"/>
<path d="M50.2415 55.8824L37.6812 44.6079H50.2415H62.3188L50.2415 55.8824Z" fill="#F9F9F9"/>
<path d="M50.2415 82.2515H49.3019L48.7923 54.4118L50.2415 55.8824L51.6908 54.4118L51.1812 82.2515H50.2415Z" fill="#F9F9F9"/>
<path d="M50.2416 81.3726L56.5218 87.2549H50.2416H43.9614L50.2416 81.3726Z" fill="#F9F9F9"/>
<path d="M89.1705 85.7887C88.1807 86.7926 86.1213 87.2985 82.8101 86.8221C79.5797 86.3574 75.4923 85.0005 70.8744 82.7848C61.6498 78.3583 50.514 70.602 40.226 60.1627C29.9385 49.724 22.486 38.6189 18.3142 29.4571C16.2257 24.8705 14.983 20.8226 14.5935 17.6212C14.1953 14.3495 14.7216 12.2853 15.7269 11.2652C16.6899 10.2881 18.5031 9.89147 21.4548 10.5601C24.3504 11.2161 28.0053 12.8315 32.2056 15.3246C40.59 20.301 50.8952 28.6218 61.2232 39.1019C71.5512 49.5819 79.8816 60.1706 84.9159 68.8118C87.4377 73.1412 89.0947 76.9176 89.7879 79.9088C90.4971 82.9667 90.1217 84.8235 89.1705 85.7887Z" stroke="#F9F9F9" stroke-width="5"/>
<path d="M84.0623 10.989C85.0874 12.029 85.6657 14.1218 85.3754 17.3899C85.0908 20.5932 83.9913 24.6422 82.0502 29.2267C78.1725 38.3855 71.0188 49.4877 60.7401 59.9176C50.4604 70.3485 39.0359 78.0971 29.5172 82.5176C24.7526 84.7304 20.5149 86.0863 17.1692 86.5495C13.7311 87.026 11.6046 86.5127 10.6188 85.5127C9.67464 84.5544 9.3186 82.7382 10.0671 79.7338C10.7998 76.7922 12.5103 73.0804 15.0895 68.8137C20.2372 60.2976 28.6833 49.8338 39.0183 39.347C49.3536 28.8598 59.5507 20.4058 67.8275 15.2982C71.9744 12.7393 75.5734 11.0617 78.4261 10.3603C81.3329 9.64578 83.1077 10.0203 84.0623 10.989Z" stroke="#F9F9F9" stroke-width="5"/>
</svg>
